<mxfile host="app.diagrams.net" agent="Mozilla/5.0 (Windows NT 10.0; Win64; x64) AppleWebKit/537.36 (KHTML, like Gecko) Chrome/140.0.0.0 Safari/537.36" version="28.2.3">
  <diagram name="Page-1" id="gQCR34DI_E0tjQYoZI0n">
    <mxGraphModel dx="1892" dy="561" grid="1" gridSize="10" guides="1" tooltips="1" connect="1" arrows="1" fold="1" page="1" pageScale="1" pageWidth="850" pageHeight="1100" math="0" shadow="0">
      <root>
        <mxCell id="0" />
        <mxCell id="1" parent="0" />
        <mxCell id="UCUhhpGXm2X8eFNa63TX-1" value="&lt;b&gt;AWS Account&lt;/b&gt;" style="points=[[0,0],[0.25,0],[0.5,0],[0.75,0],[1,0],[1,0.25],[1,0.5],[1,0.75],[1,1],[0.75,1],[0.5,1],[0.25,1],[0,1],[0,0.75],[0,0.5],[0,0.25]];outlineConnect=0;html=1;whiteSpace=wrap;fontSize=12;fontStyle=0;container=1;pointerEvents=0;collapsible=0;recursiveResize=0;shape=mxgraph.aws4.group;grIcon=mxgraph.aws4.group_account;verticalAlign=top;align=left;spacingLeft=30;dashed=0;strokeColor=light-dark(#e81717, #ededed);" parent="1" vertex="1">
          <mxGeometry x="80" y="40" width="760" height="560" as="geometry" />
        </mxCell>
        <mxCell id="UCUhhpGXm2X8eFNa63TX-2" value="" style="rounded=0;whiteSpace=wrap;html=1;fillColor=#dae8fc;strokeColor=#6c8ebf;" parent="UCUhhpGXm2X8eFNa63TX-1" vertex="1">
          <mxGeometry x="560" y="40" width="160" height="480" as="geometry" />
        </mxCell>
        <mxCell id="UCUhhpGXm2X8eFNa63TX-4" value="&lt;b&gt;&lt;font face=&quot;Comic Sans MS&quot;&gt;MongoDB&lt;/font&gt;&lt;/b&gt;" style="rounded=1;whiteSpace=wrap;html=1;fillColor=#d5e8d4;strokeColor=#82b366;gradientColor=#97d077;" parent="UCUhhpGXm2X8eFNa63TX-1" vertex="1">
          <mxGeometry x="580" y="80" width="120" height="60" as="geometry" />
        </mxCell>
        <mxCell id="UCUhhpGXm2X8eFNa63TX-5" value="" style="rounded=0;whiteSpace=wrap;html=1;fillColor=#d5e8d4;strokeColor=#82b366;" parent="UCUhhpGXm2X8eFNa63TX-1" vertex="1">
          <mxGeometry x="280" y="40" width="160" height="480" as="geometry" />
        </mxCell>
        <mxCell id="UCUhhpGXm2X8eFNa63TX-7" style="edgeStyle=orthogonalEdgeStyle;rounded=0;orthogonalLoop=1;jettySize=auto;html=1;entryX=0;entryY=0.5;entryDx=0;entryDy=0;flowAnimation=0;strokeWidth=2;fillColor=#f8cecc;gradientColor=#ea6b66;strokeColor=#b85450;" parent="UCUhhpGXm2X8eFNa63TX-1" source="UCUhhpGXm2X8eFNa63TX-6" target="UCUhhpGXm2X8eFNa63TX-4" edge="1">
          <mxGeometry relative="1" as="geometry" />
        </mxCell>
        <mxCell id="UCUhhpGXm2X8eFNa63TX-6" value="&lt;b&gt;&lt;font face=&quot;Comic Sans MS&quot;&gt;Catalogue&lt;/font&gt;&lt;/b&gt;" style="rounded=0;whiteSpace=wrap;html=1;fillColor=#f8cecc;strokeColor=#b85450;gradientColor=#ea6b66;" parent="UCUhhpGXm2X8eFNa63TX-1" vertex="1">
          <mxGeometry x="300" y="80" width="120" height="60" as="geometry" />
        </mxCell>
        <mxCell id="UCUhhpGXm2X8eFNa63TX-8" value="&lt;b&gt;&lt;font face=&quot;Comic Sans MS&quot;&gt;Backend&lt;/font&gt;&lt;/b&gt;" style="text;html=1;align=center;verticalAlign=middle;resizable=0;points=[];autosize=1;strokeColor=none;fillColor=none;" parent="UCUhhpGXm2X8eFNa63TX-1" vertex="1">
          <mxGeometry x="325" y="40" width="70" height="30" as="geometry" />
        </mxCell>
        <mxCell id="UCUhhpGXm2X8eFNa63TX-9" value="&lt;b&gt;&lt;font face=&quot;Comic Sans MS&quot;&gt;Database&lt;/font&gt;&lt;/b&gt;" style="text;html=1;align=center;verticalAlign=middle;resizable=0;points=[];autosize=1;strokeColor=none;fillColor=none;" parent="UCUhhpGXm2X8eFNa63TX-1" vertex="1">
          <mxGeometry x="600" y="40" width="80" height="30" as="geometry" />
        </mxCell>
        <mxCell id="UCUhhpGXm2X8eFNa63TX-10" value="" style="rounded=0;whiteSpace=wrap;html=1;fillColor=#fff2cc;strokeColor=#d6b656;" parent="UCUhhpGXm2X8eFNa63TX-1" vertex="1">
          <mxGeometry x="40" y="40" width="160" height="480" as="geometry" />
        </mxCell>
        <mxCell id="UCUhhpGXm2X8eFNa63TX-14" style="edgeStyle=orthogonalEdgeStyle;rounded=0;orthogonalLoop=1;jettySize=auto;html=1;entryX=-0.01;entryY=0.439;entryDx=0;entryDy=0;flowAnimation=0;entryPerimeter=0;" parent="UCUhhpGXm2X8eFNa63TX-1" source="UCUhhpGXm2X8eFNa63TX-11" target="UCUhhpGXm2X8eFNa63TX-5" edge="1">
          <mxGeometry relative="1" as="geometry" />
        </mxCell>
        <mxCell id="UCUhhpGXm2X8eFNa63TX-11" value="&lt;b&gt;Frontend&lt;/b&gt;" style="rounded=0;whiteSpace=wrap;html=1;fillColor=#dae8fc;strokeColor=#6c8ebf;gradientColor=#7ea6e0;" parent="UCUhhpGXm2X8eFNa63TX-1" vertex="1">
          <mxGeometry x="60" y="220" width="120" height="60" as="geometry" />
        </mxCell>
        <mxCell id="UCUhhpGXm2X8eFNa63TX-15" value="&lt;b&gt;&lt;font face=&quot;Comic Sans MS&quot;&gt;Redis&lt;/font&gt;&lt;/b&gt;" style="rounded=1;whiteSpace=wrap;html=1;fillColor=#f8cecc;strokeColor=#b85450;gradientColor=#ea6b66;" parent="UCUhhpGXm2X8eFNa63TX-1" vertex="1">
          <mxGeometry x="580" y="180" width="120" height="60" as="geometry" />
        </mxCell>
        <mxCell id="UCUhhpGXm2X8eFNa63TX-17" style="edgeStyle=orthogonalEdgeStyle;rounded=0;orthogonalLoop=1;jettySize=auto;html=1;" parent="UCUhhpGXm2X8eFNa63TX-1" source="UCUhhpGXm2X8eFNa63TX-16" edge="1">
          <mxGeometry relative="1" as="geometry">
            <mxPoint x="570" y="210" as="targetPoint" />
          </mxGeometry>
        </mxCell>
        <mxCell id="UCUhhpGXm2X8eFNa63TX-18" style="edgeStyle=orthogonalEdgeStyle;rounded=0;orthogonalLoop=1;jettySize=auto;html=1;" parent="UCUhhpGXm2X8eFNa63TX-1" source="UCUhhpGXm2X8eFNa63TX-16" target="UCUhhpGXm2X8eFNa63TX-15" edge="1">
          <mxGeometry relative="1" as="geometry" />
        </mxCell>
        <mxCell id="UCUhhpGXm2X8eFNa63TX-24" style="edgeStyle=orthogonalEdgeStyle;rounded=0;orthogonalLoop=1;jettySize=auto;html=1;flowAnimation=0;fillColor=#dae8fc;gradientColor=#7ea6e0;strokeColor=#6c8ebf;strokeWidth=2;" parent="UCUhhpGXm2X8eFNa63TX-1" source="UCUhhpGXm2X8eFNa63TX-16" edge="1">
          <mxGeometry relative="1" as="geometry">
            <mxPoint x="460" y="110" as="targetPoint" />
          </mxGeometry>
        </mxCell>
        <mxCell id="UCUhhpGXm2X8eFNa63TX-16" value="&lt;b&gt;&lt;font face=&quot;Comic Sans MS&quot;&gt;User&lt;/font&gt;&lt;/b&gt;" style="rounded=0;whiteSpace=wrap;html=1;fillColor=#dae8fc;strokeColor=#6c8ebf;gradientColor=#7ea6e0;" parent="UCUhhpGXm2X8eFNa63TX-1" vertex="1">
          <mxGeometry x="300" y="180" width="120" height="60" as="geometry" />
        </mxCell>
        <mxCell id="UCUhhpGXm2X8eFNa63TX-20" style="edgeStyle=orthogonalEdgeStyle;rounded=0;orthogonalLoop=1;jettySize=auto;html=1;entryX=0;entryY=0.5;entryDx=0;entryDy=0;fillColor=#fff2cc;gradientColor=#ffd966;strokeColor=#d6b656;strokeWidth=2;" parent="UCUhhpGXm2X8eFNa63TX-1" source="UCUhhpGXm2X8eFNa63TX-19" target="UCUhhpGXm2X8eFNa63TX-15" edge="1">
          <mxGeometry relative="1" as="geometry">
            <Array as="points">
              <mxPoint x="520" y="300" />
              <mxPoint x="520" y="210" />
            </Array>
          </mxGeometry>
        </mxCell>
        <mxCell id="UCUhhpGXm2X8eFNa63TX-25" style="edgeStyle=orthogonalEdgeStyle;rounded=0;orthogonalLoop=1;jettySize=auto;html=1;entryX=0;entryY=0.75;entryDx=0;entryDy=0;fillColor=#ffcd28;gradientColor=#ffa500;strokeColor=#d79b00;strokeWidth=2;" parent="UCUhhpGXm2X8eFNa63TX-1" source="UCUhhpGXm2X8eFNa63TX-19" target="UCUhhpGXm2X8eFNa63TX-6" edge="1">
          <mxGeometry relative="1" as="geometry">
            <Array as="points">
              <mxPoint x="260" y="300" />
              <mxPoint x="260" y="125" />
            </Array>
          </mxGeometry>
        </mxCell>
        <mxCell id="UCUhhpGXm2X8eFNa63TX-19" value="&lt;b&gt;&lt;font face=&quot;Comic Sans MS&quot;&gt;Cart&lt;/font&gt;&lt;/b&gt;" style="rounded=0;whiteSpace=wrap;html=1;fillColor=#fff2cc;strokeColor=#d6b656;gradientColor=#ffd966;" parent="UCUhhpGXm2X8eFNa63TX-1" vertex="1">
          <mxGeometry x="300" y="270" width="120" height="60" as="geometry" />
        </mxCell>
        <mxCell id="Hb2_gftnuTqdnOZZ4vOT-2" style="edgeStyle=orthogonalEdgeStyle;rounded=0;orthogonalLoop=1;jettySize=auto;html=1;strokeWidth=2;fillColor=#f8cecc;gradientColor=#ea6b66;strokeColor=#b85450;" parent="UCUhhpGXm2X8eFNa63TX-1" source="UCUhhpGXm2X8eFNa63TX-22" target="Hb2_gftnuTqdnOZZ4vOT-1" edge="1">
          <mxGeometry relative="1" as="geometry" />
        </mxCell>
        <mxCell id="Hb2_gftnuTqdnOZZ4vOT-3" style="edgeStyle=orthogonalEdgeStyle;rounded=0;orthogonalLoop=1;jettySize=auto;html=1;entryX=0.5;entryY=1;entryDx=0;entryDy=0;strokeWidth=2;fillColor=#f8cecc;gradientColor=#ea6b66;strokeColor=#b85450;" parent="UCUhhpGXm2X8eFNa63TX-1" source="UCUhhpGXm2X8eFNa63TX-22" target="UCUhhpGXm2X8eFNa63TX-19" edge="1">
          <mxGeometry relative="1" as="geometry" />
        </mxCell>
        <mxCell id="UCUhhpGXm2X8eFNa63TX-22" value="&lt;b&gt;&lt;font face=&quot;Comic Sans MS&quot;&gt;Shipping&lt;/font&gt;&lt;/b&gt;" style="rounded=0;whiteSpace=wrap;html=1;fillColor=#f8cecc;strokeColor=#b85450;gradientColor=#ea6b66;" parent="UCUhhpGXm2X8eFNa63TX-1" vertex="1">
          <mxGeometry x="300" y="360" width="120" height="60" as="geometry" />
        </mxCell>
        <mxCell id="GjgSvHHjisQwaJoUEpKg-2" style="edgeStyle=orthogonalEdgeStyle;rounded=0;orthogonalLoop=1;jettySize=auto;html=1;entryX=0;entryY=0.5;entryDx=0;entryDy=0;strokeWidth=2;fillColor=#e6d0de;gradientColor=#d5739d;strokeColor=#996185;" parent="UCUhhpGXm2X8eFNa63TX-1" source="UCUhhpGXm2X8eFNa63TX-23" target="Hb2_gftnuTqdnOZZ4vOT-4" edge="1">
          <mxGeometry relative="1" as="geometry" />
        </mxCell>
        <mxCell id="-VTXjBab6EKTh66zGxEK-1" style="edgeStyle=orthogonalEdgeStyle;rounded=0;orthogonalLoop=1;jettySize=auto;html=1;entryX=0;entryY=0.75;entryDx=0;entryDy=0;exitX=0;exitY=0.5;exitDx=0;exitDy=0;strokeWidth=2;fillColor=#e6d0de;gradientColor=#d5739d;strokeColor=#996185;" edge="1" parent="UCUhhpGXm2X8eFNa63TX-1" source="UCUhhpGXm2X8eFNa63TX-23" target="UCUhhpGXm2X8eFNa63TX-19">
          <mxGeometry relative="1" as="geometry">
            <Array as="points">
              <mxPoint x="260" y="480" />
              <mxPoint x="260" y="315" />
            </Array>
          </mxGeometry>
        </mxCell>
        <mxCell id="-VTXjBab6EKTh66zGxEK-2" style="edgeStyle=orthogonalEdgeStyle;rounded=0;orthogonalLoop=1;jettySize=auto;html=1;entryX=0;entryY=0.25;entryDx=0;entryDy=0;fillColor=#e6d0de;gradientColor=#d5739d;strokeColor=#996185;strokeWidth=2;" edge="1" parent="UCUhhpGXm2X8eFNa63TX-1" target="UCUhhpGXm2X8eFNa63TX-16">
          <mxGeometry relative="1" as="geometry">
            <mxPoint x="300" y="480" as="sourcePoint" />
            <Array as="points">
              <mxPoint x="260" y="480" />
              <mxPoint x="260" y="195" />
            </Array>
          </mxGeometry>
        </mxCell>
        <mxCell id="UCUhhpGXm2X8eFNa63TX-23" value="&lt;b&gt;&lt;font face=&quot;Comic Sans MS&quot;&gt;payment&lt;/font&gt;&lt;/b&gt;" style="rounded=0;whiteSpace=wrap;html=1;fillColor=#e6d0de;strokeColor=#996185;gradientColor=#d5739d;" parent="UCUhhpGXm2X8eFNa63TX-1" vertex="1">
          <mxGeometry x="300" y="450" width="120" height="60" as="geometry" />
        </mxCell>
        <mxCell id="Hb2_gftnuTqdnOZZ4vOT-1" value="&lt;b&gt;&lt;font face=&quot;Comic Sans MS&quot;&gt;MySQL&lt;/font&gt;&lt;/b&gt;" style="rounded=1;whiteSpace=wrap;html=1;fillColor=#ffcd28;strokeColor=#d79b00;gradientColor=#ffa500;" parent="UCUhhpGXm2X8eFNa63TX-1" vertex="1">
          <mxGeometry x="580" y="310" width="120" height="60" as="geometry" />
        </mxCell>
        <mxCell id="Hb2_gftnuTqdnOZZ4vOT-4" value="&lt;b&gt;&lt;font face=&quot;Comic Sans MS&quot;&gt;RabbitMQ&lt;/font&gt;&lt;/b&gt;" style="rounded=1;whiteSpace=wrap;html=1;fillColor=#dae8fc;strokeColor=#6c8ebf;gradientColor=#7ea6e0;" parent="UCUhhpGXm2X8eFNa63TX-1" vertex="1">
          <mxGeometry x="580" y="420" width="120" height="60" as="geometry" />
        </mxCell>
        <mxCell id="GjgSvHHjisQwaJoUEpKg-1" value="&lt;b&gt;API&lt;/b&gt;" style="text;html=1;align=center;verticalAlign=middle;resizable=0;points=[];autosize=1;strokeColor=none;fillColor=none;" parent="UCUhhpGXm2X8eFNa63TX-1" vertex="1">
          <mxGeometry x="190" y="250" width="40" height="30" as="geometry" />
        </mxCell>
        <mxCell id="-VTXjBab6EKTh66zGxEK-3" value="&lt;b&gt;&lt;font face=&quot;Comic Sans MS&quot;&gt;Frontend&lt;/font&gt;&lt;/b&gt;" style="text;html=1;align=center;verticalAlign=middle;resizable=0;points=[];autosize=1;strokeColor=none;fillColor=none;" vertex="1" parent="UCUhhpGXm2X8eFNa63TX-1">
          <mxGeometry x="85" y="40" width="70" height="30" as="geometry" />
        </mxCell>
        <mxCell id="UCUhhpGXm2X8eFNa63TX-13" style="edgeStyle=orthogonalEdgeStyle;rounded=0;orthogonalLoop=1;jettySize=auto;html=1;" parent="1" source="UCUhhpGXm2X8eFNa63TX-12" target="UCUhhpGXm2X8eFNa63TX-11" edge="1">
          <mxGeometry relative="1" as="geometry" />
        </mxCell>
        <mxCell id="UCUhhpGXm2X8eFNa63TX-12" value="" style="verticalLabelPosition=bottom;sketch=0;aspect=fixed;html=1;verticalAlign=top;strokeColor=none;align=center;outlineConnect=0;shape=mxgraph.citrix.browser;" parent="1" vertex="1">
          <mxGeometry x="-80" y="253.75" width="47.5" height="72.5" as="geometry" />
        </mxCell>
        <mxCell id="GjgSvHHjisQwaJoUEpKg-4" value="&lt;b&gt;&lt;font face=&quot;Comic Sans MS&quot;&gt;Dispatch&lt;/font&gt;&lt;/b&gt;" style="rounded=0;whiteSpace=wrap;html=1;fillColor=#e6d0de;gradientColor=#d5739d;strokeColor=#996185;" parent="1" vertex="1">
          <mxGeometry x="890" y="460" width="140" height="80" as="geometry" />
        </mxCell>
        <mxCell id="GjgSvHHjisQwaJoUEpKg-5" style="edgeStyle=orthogonalEdgeStyle;rounded=0;orthogonalLoop=1;jettySize=auto;html=1;entryX=0;entryY=0.375;entryDx=0;entryDy=0;entryPerimeter=0;fillColor=#e6d0de;gradientColor=#d5739d;strokeColor=#996185;strokeWidth=2;" parent="1" source="Hb2_gftnuTqdnOZZ4vOT-4" target="GjgSvHHjisQwaJoUEpKg-4" edge="1">
          <mxGeometry relative="1" as="geometry" />
        </mxCell>
      </root>
    </mxGraphModel>
  </diagram>
</mxfile>
